<?xml version="1.0" encoding="UTF-8"?>
<svg width="100" height="100" viewBox="0 0 100 100" xmlns="http://www.w3.org/2000/svg">
  <!-- Círculo azul de fondo -->
  <circle cx="50" cy="50" r="50" fill="#2962ff"/>
  
  <!-- Ícono de candado en negro -->
  <path d="M65 42h-2.5v-5c0-6.9-5.6-12.5-12.5-12.5S37.5 30.1 37.5 37v5H35c-2.8 0-5 2.2-5 5v25c0 2.8 2.2 5 5 5h30c2.8 0 5-2.2 5-5V47c0-2.8-2.2-5-5-5zm-15 22.5c-2.8 0-5-2.2-5-5s2.2-5 5-5 5 2.2 5 5-2.2 5-5 5zm7.8-22.5H42.2V37c0-4.3 3.5-7.8 7.8-7.8s7.8 3.5 7.8 7.8v5z" fill="white"/>
</svg>